<svg height="472.97694pt" viewBox="0 0 472.97694 472.97694" width="472.97694pt" xmlns="http://www.w3.org/2000/svg"><path d="m8.015625 112.007812 104-104 32.003906 32-104.003906 104zm0 0" fill="#b08149"/><path d="m24.007812 56.007812-16 16 360 376 24-24zm0 0" fill="#f19601"/><path d="m72.007812 8.007812-16 16 368 368 24-24zm0 0" fill="#f19601"/><path d="m368.007812 448.007812 24-24 12 12c6.625 6.628907 6.625 17.371094 0 24-6.628906 6.625-17.371093 6.625-24 0zm0 0" fill="#edae00"/><path d="m424.007812 392.007812 12 12c6.628907 6.625 17.371094 6.625 24 0 6.625-6.628906 6.625-17.371093 0-24l-12-12zm0 0" fill="#edae00"/><path d="m368.007812 448.007812 24-24-24-24-23.25 24zm0 0" fill="#e6364b"/><path d="m424.007812 392.007812 24-24-24.503906-23.753906-23.496094 23.753906zm0 0" fill="#e6364b"/><path d="m465.664062 374.351562-12-12-.074218-.046874-.054688-.082032-316.960937-303.472656 13.089843-13.085938c3.121094-3.125 3.121094-8.1875 0-11.3125l-32-32c-3.125-3.121093-8.1875-3.121093-11.3125 0l-14.023437 14.023438-14.792969-14.152344c-3.144531-3.011718-8.125-2.957031-11.199218.128906l-16 16c-3.125 3.125-3.125 8.1875 0 11.3125l14.359374 14.34375-20.6875 20.6875-14.34375-14.34375c-3.125-3.121093-8.1875-3.121093-11.3125 0l-16 16c-3.085937 3.074219-3.140624 8.054688-.128906 11.199219l14.152344 14.777344-14.023438 14.023437c-3.121093 3.125-3.121093 8.1875 0 11.3125l32 32c3.125 3.121094 8.1875 3.121094 11.3125 0l13.085938-13.089843 303.472656 316.960937.082032.054688.046874.074218 12 12c9.75 9.75 25.5625 9.75 35.3125 0s9.75-25.5625 0-35.3125l-322.34375-322.34375 20.6875-20.6875 322.34375 322.34375c9.75 9.75 25.5625 9.75 35.3125 0s9.75-25.5625 0-35.3125zm-353.65625-355.03125 20.6875 20.6875-7.679687 7.671876-21.136719-20.230469zm-39.871093-.113281 14.773437 14.160157 32.699219 31.304687 292.4375 280-12.039063 12.023437-332.6875-332.6875zm-48.128907 48.113281 332.6875 332.6875-12 12.039063-280-292.4375-31.34375-32.699219-14.144531-14.773437zm16 65.375-20.6875-20.6875 8.128907-8.128906 20.230469 21.136719zm358.34375 321.65625c-3.507812 3.496094-9.179687 3.496094-12.6875 0l-6.34375-6.34375 12.6875-12.6875 6.34375 6.34375c3.496094 3.507813 3.496094 9.179688 0 12.6875zm-17.65625-30.34375-12.558593 12.558594-12.417969-12.957031 12.289062-12.289063zm-304.6875-327.3125-20.6875-20.6875 20.6875-20.6875 20.6875 20.6875zm347.601563 259.023438 12.957031 12.417969-12.558594 12.558593-12.6875-12.6875zm30.742187 42.632812c-3.507812 3.496094-9.179687 3.496094-12.6875 0l-6.34375-6.34375 12.6875-12.6875 6.34375 6.34375c3.496094 3.507813 3.496094 9.179688 0 12.6875zm0 0"/></svg>